<?xml version="1.0" encoding="UTF-8"?>
<svg viewBox="0 0 128 128" xmlns="http://www.w3.org/2000/svg">
  <!-- Background circle -->
  <circle cx="64" cy="64" r="60" fill="#2c2c2c" stroke="#00d4ff" stroke-width="3"/>
  
  <!-- CPU/Monitor icon in center -->
  <!-- Chip outline -->
  <rect x="40" y="40" width="48" height="48" rx="4" fill="#1a1a1a" stroke="#00d4ff" stroke-width="2"/>
  
  <!-- Grid pattern inside chip -->
  <line x1="52" y1="40" x2="52" y2="88" stroke="#00d4ff" stroke-width="1" opacity="0.5"/>
  <line x1="64" y1="40" x2="64" y2="88" stroke="#00d4ff" stroke-width="1" opacity="0.5"/>
  <line x1="76" y1="40" x2="76" y2="88" stroke="#00d4ff" stroke-width="1" opacity="0.5"/>
  <line x1="40" y1="52" x2="88" y2="52" stroke="#00d4ff" stroke-width="1" opacity="0.5"/>
  <line x1="40" y1="64" x2="88" y2="64" stroke="#00d4ff" stroke-width="1" opacity="0.5"/>
  <line x1="40" y1="76" x2="88" y2="76" stroke="#00d4ff" stroke-width="1" opacity="0.5"/>
  
  <!-- Chip pins (left side) -->
  <rect x="32" y="48" width="8" height="3" fill="#00d4ff"/>
  <rect x="32" y="58" width="8" height="3" fill="#00d4ff"/>
  <rect x="32" y="68" width="8" height="3" fill="#00d4ff"/>
  <rect x="32" y="78" width="8" height="3" fill="#00d4ff"/>
  
  <!-- Chip pins (right side) -->
  <rect x="88" y="48" width="8" height="3" fill="#00d4ff"/>
  <rect x="88" y="58" width="8" height="3" fill="#00d4ff"/>
  <rect x="88" y="68" width="8" height="3" fill="#00d4ff"/>
  <rect x="88" y="78" width="8" height="3" fill="#00d4ff"/>
  
  <!-- Chip pins (top) -->
  <rect x="48" y="32" width="3" height="8" fill="#00d4ff"/>
  <rect x="58" y="32" width="3" height="8" fill="#00d4ff"/>
  <rect x="68" y="32" width="3" height="8" fill="#00d4ff"/>
  <rect x="78" y="32" width="3" height="8" fill="#00d4ff"/>
  
  <!-- Chip pins (bottom) -->
  <rect x="48" y="88" width="3" height="8" fill="#00d4ff"/>
  <rect x="58" y="88" width="3" height="8" fill="#00d4ff"/>
  <rect x="68" y="88" width="3" height="8" fill="#00d4ff"/>
  <rect x="78" y="88" width="3" height="8" fill="#00d4ff"/>
  
  <!-- Performance graph overlay in corner -->
  <g transform="translate(82, 12)">
    <polyline points="0,20 4,15 8,18 12,10 16,12 20,5" 
              fill="none" stroke="#00ff88" stroke-width="2" stroke-linecap="round"/>
    <circle cx="20" cy="5" r="2" fill="#00ff88"/>
  </g>
</svg>
